<svg xmlns="http://www.w3.org/2000/svg" xmlns:xlink="http://www.w3.org/1999/xlink" width="2788" height="1337" viewBox="0 0 2788 1337">
  <defs>
    <clipPath id="clip-Web_1920_1">
      <rect width="2788" height="1337"/>
    </clipPath>
  </defs>
  <g id="Web_1920_1" data-name="Web 1920 – 1" clip-path="url(#clip-Web_1920_1)">
    <rect width="2788" height="1337" fill="#fff"/>
    <g id="rebel_sports_logo" data-name="rebel sports logo" transform="translate(203.855 258.159)">
      <g id="Union_6" data-name="Union 6">
        <path id="Union_6-2" data-name="Union 6" d="M1236.97,502.321V242.873h18.185v37.476c11.609-25.158,32.329-40.009,54.3-38.917,18.991-.791,37.364,9.153,50.672,27.427s20.339,43.214,19.393,68.785c.978,25.616-6.034,50.616-19.341,68.958s-31.7,28.353-50.724,27.615c-21.46.944-41.733-13.261-53.484-37.476V502.321Zm18.72-164.678c-.872,25.994,8.923,50.533,25.5,63.882s37.255,13.348,53.831,0,26.372-37.887,25.5-63.882c.873-25.995-8.922-50.534-25.5-63.883s-37.255-13.349-53.831,0-26.371,37.888-25.5,63.883ZM927.562,502.321V165.038h17.65V502.321Zm836.765-100.536,7.755-20.54c17.079,20.136,39.083,31.046,61.775,30.629,35.032,0,50.275-19.819,50.275-44.683,0-69.168-115.259-26.666-115.259-119.995,0-37.1,21.394-69.168,69.009-69.168,20.544-.316,40.711,7.448,58.031,22.341l-6.686,21.26c-15.3-13.377-33.1-20.625-51.332-20.9-34.244,0-49.473,20.522-49.473,45.764,0,69.186,115.246,27.386,115.246,119.274,0,37.1-21.929,68.826-69.8,68.826-25.413,1.191-50.232-10.518-69.543-32.809Zm-705.742,0,7.768-20.54c17.078,20.139,39.083,31.049,61.775,30.629,35.032,0,50.275-19.819,50.275-44.683,0-69.168-115.259-26.666-115.259-119.995a80.29,80.29,0,0,1,6.5-32.665l-27.6-109.149a21.6,21.6,0,0,1,1.839-14.908c2.34-4.291,6.057-6.824,10.008-6.821h62.082V58.574h-15.524c-1.71-.01-3.095-1.876-3.1-4.18V29.278c0-2.309,1.389-4.18,3.1-4.18h15.524V4.18c0-2.288,1.365-4.151,3.063-4.18h18.719c1.713,0,3.1,1.871,3.1,4.18V25.1h15.484c1.713,0,3.1,1.871,3.1,4.18V54.394c-.007,2.3-1.392,4.17-3.1,4.18h-15.524v25.08H1202.9c3.95,0,7.662,2.539,10,6.828a21.618,21.618,0,0,1,1.846,14.9L1186.4,217.522a17.519,17.519,0,0,0-1.19-1.333l-1.711,5.405c-15.3-13.38-33.106-20.628-51.345-20.9-34.23,0-49.473,20.522-49.473,45.764,0,69.186,115.259,27.386,115.259,119.274,0,37.1-21.929,68.826-69.8,68.826-25.409,1.194-50.225-10.5-69.543-32.773Zm614.283-22.7V264.493h-25.138V242.873h25.138v-41.44h18.974v41.44h42.788v21.621h-42.788V377.642c-.991,9.2,1.2,18.506,5.95,25.252s11.528,10.188,18.4,9.341c7.6.261,15.007-3.2,20.859-9.729l6.686,18.4c-8.4,9.058-18.918,13.785-29.671,13.333-11.215,1.687-22.394-3.564-30.4-14.282S1671.69,394.206,1672.869,379.083ZM520.278,337.643c-1.015-25.283,5.809-50,18.84-68.241s31.1-28.373,49.888-27.971c18.763-.493,36.819,9.635,49.781,27.922s19.64,43.058,18.412,68.29c0,2.18-.281,5.045-.281,7.928H539.251c.8,18.661,7.1,36.12,17.49,48.5s24.024,18.659,37.867,17.442c16.378.7,32.147-8.4,43.068-24.864l10.7,16.594c-13.764,20.714-33.668,32.076-54.287,30.99-19.539,1.582-38.671-7.986-52.713-26.362s-21.7-43.865-21.1-70.228Zm18.987-11.171h99.749c-1.67-35.459-23.5-63.067-49.868-63.067s-48.2,27.608-49.868,63.067ZM371.323,394.938v37.476H353.138V165.038h18.987V278.907c11.739-24.234,32.02-38.445,53.485-37.476,18.992-.791,37.364,9.153,50.672,27.427s20.339,43.214,19.393,68.785c.954,25.607-6.066,50.588-19.367,68.922s-31.677,28.356-50.7,27.651c-22.036,1.1-42.8-13.918-54.287-39.278Zm.535-57.313c-.814,25.948,9,50.408,25.55,63.709s37.188,13.3,53.743,0,26.364-37.761,25.55-63.709c.814-25.948-9-50.408-25.55-63.709s-37.188-13.3-53.743,0S371.044,311.677,371.858,337.625Zm-194.416,0c-1.015-25.283,5.809-50,18.84-68.241s31.1-28.373,49.888-27.971c18.763-.493,36.82,9.635,49.781,27.922s19.64,43.058,18.412,68.29c0,2.18-.281,5.045-.281,7.928H196.429c.8,18.661,7.1,36.12,17.49,48.5s24.024,18.659,37.867,17.442c16.372.7,32.135-8.394,43.055-24.846l10.7,16.594c-13.767,20.708-33.67,32.063-54.287,30.972-19.537,1.582-38.666-7.984-52.708-26.356s-21.7-43.856-21.1-70.216Zm18.987-11.171h99.749c-1.722-35.41-23.539-62.945-49.874-62.945S198.151,291.045,196.429,326.455Zm1361.983,105.96V242.873h18.2v37.116c9.965-26.272,30.889-41.589,52.669-38.557V266.3c-1.6,0-3.2-.36-4.533-.36-29.416,0-47.347,25.224-47.347,69.907v96.573Zm-858.426,0V180.173h19.789v229.18H824.6v23.062Zm-569.878,0L87.32,351.337A100.276,100.276,0,0,1,72.345,352.4H22.069v80.015H2.28V180.173H72.345c47.6,0,76.483,32.431,76.483,86.483,1.325,36.687-16.478,69.671-42.788,79.276l45.729,86.483ZM22.069,329.716H71.81c37.439,0,57.228-23.422,57.228-63.06,0-40.341-19.8-63.421-57.228-63.421H22.069Zm1451.864,21.35h17.65c1.87,21.977,9.186,42.461,20.765,58.142-10.641,13.026-24.119,21.077-38.428,22.954Zm-51.372,58.142c11.6-15.662,18.918-36.156,20.765-58.142h17.65v81.078C1446.67,430.286,1433.194,422.239,1422.562,409.208Zm82.072-58.142h29.51a109.249,109.249,0,0,1-13.037,45.205C1512.206,383.93,1506.438,368.1,1504.634,351.066Zm-103.84,0h29.51c-1.779,17.048-7.55,32.885-16.473,45.205a109.238,109.238,0,0,1-13.05-45.205Zm103.84-17.459c1.8-17.039,7.568-32.868,16.473-45.205a109.117,109.117,0,0,1,13.037,45.205Zm-30.687,0V252.53c14.313,1.86,27.794,9.912,38.428,22.954-11.58,15.687-18.9,36.177-20.765,58.16Zm-30.62,0c-1.854-21.988-9.173-42.485-20.765-58.16,10.634-13.042,24.116-21.094,38.428-22.954v81.078Zm-42.547,0a109.118,109.118,0,0,1,13.037-45.205c8.92,12.324,14.691,28.159,16.473,45.205Z" transform="translate(-2.28 0)" fill="#e82828"/>
      </g>
    </g>
    <text id="Do_whatever_it_takes_" data-name="Do whatever it takes!" transform="translate(179 1013)" fill="#707070" font-size="262" font-family="SegoeUI, Segoe UI"><tspan x="0" y="0">Do whatever it takes!</tspan></text>
  </g>
</svg>
