<svg xmlns="http://www.w3.org/2000/svg" width="143.2" height="28.88" viewBox="0 0 143.2 28.88">
  <g id="rebel_sports_logo" data-name="rebel sports logo" transform="translate(0.5 0.5)">
    <path id="Union_6" data-name="Union 6" d="M94.62,27.88V13.48h1.36v2.08a4.583,4.583,0,0,1,4.061-2.16,5.089,5.089,0,0,1,5.24,5.34,5.1,5.1,0,0,1-5.24,5.36,4.6,4.6,0,0,1-4-2.08v5.86Zm1.4-9.14a3.924,3.924,0,1,0,7.84,0,3.924,3.924,0,1,0-7.84,0ZM71.48,27.88V9.16H72.8V27.88ZM134.06,22.3l.58-1.14a6.874,6.874,0,0,0,4.62,1.7c2.62,0,3.76-1.1,3.76-2.48,0-3.839-8.62-1.48-8.62-6.66,0-2.059,1.6-3.839,5.161-3.839a7.9,7.9,0,0,1,4.34,1.24l-.5,1.18a7.2,7.2,0,0,0-3.839-1.16c-2.561,0-3.7,1.139-3.7,2.54,0,3.84,8.619,1.52,8.619,6.62,0,2.059-1.64,3.82-5.22,3.82A7.589,7.589,0,0,1,134.06,22.3Zm-52.781,0,.581-1.14a6.872,6.872,0,0,0,4.62,1.7c2.62,0,3.76-1.1,3.76-2.48,0-3.839-8.62-1.48-8.62-6.66a3.49,3.49,0,0,1,.486-1.813L80.042,5.849a.928.928,0,0,1,.886-1.206h4.643V3.251H84.41a.233.233,0,0,1-.232-.232V1.625a.232.232,0,0,1,.232-.232h1.161V.232A.232.232,0,0,1,85.8,0H87.2a.232.232,0,0,1,.232.232V1.393H88.59a.232.232,0,0,1,.232.232V3.019a.233.233,0,0,1-.232.232H87.429V4.643h4.643a.929.929,0,0,1,.886,1.206l-2.12,6.224s-.029-.028-.089-.074l-.128.3a7.2,7.2,0,0,0-3.84-1.16c-2.56,0-3.7,1.139-3.7,2.54,0,3.84,8.62,1.52,8.62,6.62,0,2.059-1.64,3.82-5.22,3.82A7.593,7.593,0,0,1,81.28,22.3Zm45.941-1.26V14.68h-1.88v-1.2h1.88v-2.3h1.419v2.3h3.2v1.2h-3.2v6.28a1.685,1.685,0,0,0,1.821,1.92,2.351,2.351,0,0,0,1.56-.54l.5,1.021a3.382,3.382,0,0,1-2.219.74A2.787,2.787,0,0,1,127.22,21.04Zm-86.2-2.3a5.067,5.067,0,0,1,5.14-5.34,5.013,5.013,0,0,1,5.1,5.34c0,.121-.021.28-.021.44h-8.8a3.893,3.893,0,0,0,4.14,3.66A4.144,4.144,0,0,0,49.8,21.46l.8.921a5.178,5.178,0,0,1-4.06,1.72A5.21,5.21,0,0,1,41.02,18.74Zm1.42-.62H49.9a3.737,3.737,0,0,0-7.459,0Zm-12.56,3.8V24H28.52V9.16h1.42v6.32a4.593,4.593,0,0,1,4-2.08,5.089,5.089,0,0,1,5.24,5.34,5.106,5.106,0,0,1-5.24,5.36A4.559,4.559,0,0,1,29.88,21.92Zm.04-3.181a3.924,3.924,0,1,0,7.841,0,3.924,3.924,0,1,0-7.841,0Zm-14.54,0a5.067,5.067,0,0,1,5.14-5.34,5.013,5.013,0,0,1,5.1,5.34c0,.121-.021.28-.021.44H16.8a3.893,3.893,0,0,0,4.14,3.66A4.143,4.143,0,0,0,24.16,21.46l.8.921A5.178,5.178,0,0,1,20.9,24.1,5.21,5.21,0,0,1,15.38,18.74Zm1.42-.62h7.46a3.738,3.738,0,0,0-7.46,0ZM118.66,24V13.48h1.361v2.06a3.966,3.966,0,0,1,3.939-2.14v1.38c-.12,0-.239-.02-.339-.02-2.2,0-3.541,1.4-3.541,3.88V24Zm-64.2,0V10H55.94V22.72h7.84V24ZM11.84,24l-3.2-4.5a10.064,10.064,0,0,1-1.12.059H3.76V24H2.28V10H7.52c3.56,0,5.72,1.8,5.72,4.8a4.34,4.34,0,0,1-3.2,4.4L13.46,24ZM3.76,18.3H7.48c2.8,0,4.28-1.3,4.28-3.5,0-2.239-1.481-3.52-4.28-3.52H3.76Zm108.582,1.185h1.32a5.456,5.456,0,0,0,1.553,3.227,4.994,4.994,0,0,1-2.874,1.274ZM108.5,22.712a5.434,5.434,0,0,0,1.553-3.227h1.32v4.5A4.98,4.98,0,0,1,108.5,22.712Zm6.138-3.227h2.207a4.967,4.967,0,0,1-.975,2.509A4.516,4.516,0,0,1,114.638,19.485Zm-7.766,0h2.207a4.487,4.487,0,0,1-1.232,2.509A4.967,4.967,0,0,1,106.871,19.485Zm7.766-.969a4.51,4.51,0,0,1,1.232-2.509,4.961,4.961,0,0,1,.975,2.509Zm-2.295,0v-4.5a4.98,4.98,0,0,1,2.874,1.274,5.458,5.458,0,0,0-1.553,3.228Zm-2.29,0a5.444,5.444,0,0,0-1.553-3.228,4.98,4.98,0,0,1,2.874-1.274v4.5Zm-3.182,0a4.961,4.961,0,0,1,.975-2.509,4.491,4.491,0,0,1,1.232,2.509Z" transform="translate(-2.28)" fill="#fff" stroke="rgba(0,0,0,0)" stroke-miterlimit="10" stroke-width="1"/>
  </g>
</svg>
