<svg xmlns="http://www.w3.org/2000/svg" xmlns:xlink="http://www.w3.org/1999/xlink" width="985" height="396" viewBox="0 0 985 396">
  <defs>
    <clipPath id="clip-Web_1920_1">
      <rect width="985" height="396"/>
    </clipPath>
  </defs>
  <g id="Web_1920_1" data-name="Web 1920 – 1" clip-path="url(#clip-Web_1920_1)">
    <rect width="985" height="396" fill="#fff"/>
    <g id="rebel_sports_logo" data-name="rebel sports logo" transform="translate(46 49.304)">
      <g id="Union_6" data-name="Union 6">
        <path id="Union_6-2" data-name="Union 6" d="M457.831,185.336V89.61h6.709v13.827c4.283-9.282,11.928-14.762,20.035-14.359,7.007-.292,13.786,3.377,18.7,10.12s7.5,15.944,7.155,25.379c.361,9.451-2.226,18.675-7.136,25.443s-11.695,10.461-18.715,10.189c-7.918.348-15.4-4.893-19.734-13.827v38.955Zm6.907-60.759c-.322,9.591,3.292,18.645,9.408,23.57a15.2,15.2,0,0,0,19.861,0c6.116-4.925,9.73-13.979,9.408-23.57.322-9.591-3.292-18.645-9.408-23.57a15.2,15.2,0,0,0-19.862,0c-6.116,4.925-9.73,13.979-9.408,23.57ZM343.672,185.336V60.892h6.512V185.336ZM652.4,148.242l2.861-7.578c6.3,7.429,14.42,11.455,22.792,11.3,12.925,0,18.55-7.312,18.55-16.486,0-25.52-42.526-9.839-42.526-44.273,0-13.687,7.893-25.52,25.461-25.52,7.58-.117,15.021,2.748,21.411,8.243l-2.467,7.844a29.421,29.421,0,0,0-18.939-7.711c-12.635,0-18.254,7.572-18.254,16.885,0,25.527,42.521,10.1,42.521,44.007,0,13.688-8.091,25.394-25.752,25.394-9.376.439-18.534-3.881-25.659-12.105Zm-260.39,0,2.866-7.578c6.3,7.43,14.42,11.456,22.792,11.3,12.926,0,18.55-7.312,18.55-16.486,0-25.52-42.526-9.839-42.526-44.273a29.625,29.625,0,0,1,2.4-12.052L385.911,38.882a7.968,7.968,0,0,1,.678-5.5,4.34,4.34,0,0,1,3.693-2.517h22.906V21.611H407.46c-.631,0-1.142-.692-1.145-1.542V10.8c0-.852.512-1.542,1.145-1.542h5.728V1.542c0-.844.5-1.531,1.13-1.542h6.907c.632,0,1.145.69,1.145,1.542V9.26h5.713c.632,0,1.145.69,1.145,1.542v9.267c0,.85-.514,1.539-1.145,1.542h-5.728v9.254H445.26a4.347,4.347,0,0,1,3.69,2.519,7.976,7.976,0,0,1,.681,5.5L439.172,80.257a6.459,6.459,0,0,0-.439-.492l-.631,1.994a29.42,29.42,0,0,0-18.944-7.711c-12.63,0-18.254,7.572-18.254,16.885,0,25.527,42.526,10.1,42.526,44.007,0,13.687-8.091,25.394-25.752,25.394-9.375.441-18.531-3.874-25.659-12.092Zm226.646-8.376V97.587h-9.275V89.61h9.275V74.321h7V89.61h15.787v7.977H625.66v41.747a13.875,13.875,0,0,0,2.2,9.317c1.752,2.489,4.253,3.759,6.788,3.447a9.91,9.91,0,0,0,7.7-3.59l2.467,6.787a14.147,14.147,0,0,1-10.947,4.919c-4.138.623-8.262-1.315-11.216-5.269A22.632,22.632,0,0,1,618.66,139.866ZM193.4,124.577c-.374-9.328,2.143-18.447,6.951-25.178s11.474-10.468,18.407-10.32c6.923-.182,13.585,3.555,18.367,10.3s7.246,15.886,6.793,25.2c0,.8-.1,1.861-.1,2.925H200.4a30.04,30.04,0,0,0,6.453,17.895c3.835,4.568,8.864,6.885,13.971,6.436,6.043.259,11.861-3.1,15.891-9.174l3.947,6.122c-5.079,7.643-12.422,11.835-20.03,11.434-7.209.584-14.268-2.947-19.449-9.727s-8.006-16.184-7.784-25.911Zm7.005-4.122h36.8c-.616-13.083-8.67-23.269-18.4-23.269s-17.783,10.186-18.4,23.269Zm-61.964,25.261v13.827h-6.709V60.892h7.005v42.013c4.331-8.941,11.814-14.185,19.734-13.827,7.007-.292,13.786,3.377,18.7,10.12s7.5,15.944,7.155,25.379c.352,9.448-2.238,18.665-7.146,25.429s-11.688,10.462-18.705,10.2c-8.13.406-15.79-5.135-20.03-14.492Zm.2-21.146c-.3,9.574,3.319,18.6,9.427,23.506a15.193,15.193,0,0,0,19.829,0c6.108-4.908,9.727-13.932,9.427-23.506.3-9.574-3.319-18.6-9.427-23.506a15.193,15.193,0,0,0-19.829,0C141.958,105.971,138.339,115,138.639,124.57Zm-71.732,0c-.374-9.328,2.143-18.447,6.951-25.178s11.474-10.468,18.407-10.32c6.923-.182,13.585,3.555,18.367,10.3s7.246,15.887,6.793,25.2c0,.8-.1,1.861-.1,2.925H73.913a30.04,30.04,0,0,0,6.453,17.895c3.835,4.568,8.864,6.885,13.971,6.436,6.041.259,11.857-3.1,15.886-9.167l3.947,6.122c-5.079,7.64-12.423,11.83-20.03,11.427-7.208.584-14.266-2.946-19.447-9.724s-8.006-16.181-7.785-25.907Zm7.005-4.122h36.8c-.635-13.065-8.685-23.224-18.4-23.224s-17.766,10.159-18.4,23.224ZM576.43,159.543V89.61h6.714V103.3c3.677-9.693,11.4-15.345,19.433-14.226v9.174c-.592,0-1.179-.133-1.672-.133-10.853,0-17.469,9.307-17.469,25.793v35.631Zm-316.725,0V66.476h7.3v84.558h38.678v8.509Zm-210.262,0L33.656,129.629a37,37,0,0,1-5.525.392H9.581v29.522H2.28V66.476H28.131c17.563,0,28.219,11.966,28.219,31.909.489,13.536-6.08,25.706-15.787,29.25l16.872,31.909ZM9.581,121.652H27.934c13.814,0,21.115-8.642,21.115-23.267,0-14.884-7.306-23.4-21.115-23.4H9.581Zm535.679,7.877h6.512a42.363,42.363,0,0,0,7.661,21.452c-3.926,4.806-8.9,7.776-14.179,8.469Zm-18.954,21.452a42.189,42.189,0,0,0,7.662-21.452h6.512v29.914C535.2,158.758,530.229,155.789,526.306,150.981Zm30.281-21.452h10.888a40.308,40.308,0,0,1-4.81,16.679A34.948,34.948,0,0,1,556.588,129.529Zm-38.313,0h10.888a34.718,34.718,0,0,1-6.078,16.679,40.3,40.3,0,0,1-4.815-16.679Zm38.313-6.442a34.9,34.9,0,0,1,6.078-16.679,40.259,40.259,0,0,1,4.81,16.679Zm-11.322,0V93.173c5.281.686,10.255,3.657,14.179,8.469a42.381,42.381,0,0,0-7.661,21.459Zm-11.3,0a42.271,42.271,0,0,0-7.662-21.459c3.924-4.812,8.9-7.783,14.179-8.469v29.914Zm-15.7,0a40.261,40.261,0,0,1,4.81-16.679,34.751,34.751,0,0,1,6.078,16.679Z" transform="translate(-2.28 0)" fill="#e82828"/>
      </g>
    </g>
    <text id="Do_whatever_it_takes_" data-name="Do whatever it takes!" transform="translate(46 343)" fill="#707070" font-size="97" font-family="SegoeUI, Segoe UI"><tspan x="0" y="0">Do whatever it takes!</tspan></text>
  </g>
</svg>
